# xmcd
#
# Track frame offsets:
#	187
#	18912
#	34755
#	48880
#	59790
#	73147
#	101380
#	114587
#	126862
#	138902
#
# Disc length: 2058 seconds
#
# Revision: 0
# Processed by: cddbd v1.4b42PL1 Copyright (c) Steve Scherf et al.
# Submitted via: audiograbber 1.80.04
#
DISCID=8a08080a
DTITLE=Various Artist - Best of the Blues Vol 2
DYEAR=1993
DGENRE=Blues
TTITLE0=B.B. King - Guess Who
TTITLE1=Bobby Bland - Do What You Set Out To Do
TTITLE2=Muddy Waters - Rolling Stone
TTITLE3=T. Bone Walker - Stormy Monday Blues
TTITLE4=Tail Dragger - Howlin' Wolf
TTITLE5=Bobby Bland and B.B. King - Let the Good Times Roll In
TTITLE6=Memphis Minnie McCoy - Weary Woman Blues
TTITLE7=Joe Turner - Doggin' the Dog
TTITLE8=B.B. King - Help the Poor
TTITLE9=Bobby Bland - Driftin' Blues
EXTD=
EXTT0=
EXTT1=
EXTT2=
EXTT3=
EXTT4=
EXTT5=
EXTT6=
EXTT7=
EXTT8=
EXTT9=
PLAYORDER=
